Inverse Dynamics Generalized Forces
version=1
nRows=11
nColumns=34
inDegrees=no
endheader 
time	pelvis_tilt_moment	pelvis_list_moment	pelvis_rotation_moment	pelvis_tx_force	pelvis_ty_force	pelvis_tz_force	hip_flexion_l_moment	hip_adduction_l_moment	hip_rotation_l_moment	hip_flexion_r_moment	hip_adduction_r_moment	hip_rotation_r_moment	knee_angle_l_moment	knee_angle_r_moment	ankle_angle_l_moment	ankle_angle_r_moment	subtalar_angle_l_moment	subtalar_angle_r_moment	mtp_angle_l_moment	mtp_angle_r_moment	lumbar_extension_moment	lumbar_bending_moment	lumbar_rotation_moment	arm_flex_l_moment	arm_add_l_moment	arm_rot_l_moment	arm_flex_r_moment	arm_add_r_moment	arm_rot_r_moment	elbow_flex_l_moment	elbow_flex_r_moment	pro_sup_l_moment	pro_sup_r_moment	
          0.97000000	          0.00000104	          0.00000036	          0.00000004	          0.00000143	          0.00000307	         -0.00000132	         -3.31982215	        -52.05661864	         20.24970679	         18.64616915	         -1.80057369	         -2.59008630	       -103.93512990	         13.70006155	        -49.44961096	          0.00915635	         15.57748919	         -0.12053043	          5.17702549	         -0.01069546	          9.86438072	          8.62701981	          1.92092033	        -10.04574863	          0.44615275	         -0.90763290	         12.22277055	         -3.19010145	         -3.39329340	         -4.15556157	          5.81675640	          0.03542810	         -0.31753509	
          0.98000000	          0.00000012	          0.00000150	          0.00000008	          0.00000016	          0.00000326	         -0.00000082	         -2.26744771	        -51.99143739	         18.92033241	         29.48828373	         -4.25748791	         -2.56123654	       -105.50644207	         11.67063505	        -50.86548678	          0.67899450	         15.49951419	         -0.39342063	          5.37866304	         -0.05434434	         -1.64854027	         11.07803367	          0.55099884	         -1.45589274	         -4.24923513	         -0.72297235	         20.06060887	         -6.54483230	         -6.13151026	         -0.12079525	          8.45230808	         -0.01839247	         -0.54595488	
          0.99000000	          0.00000076	          0.00000108	          0.00000020	          0.00000099	          0.00000249	         -0.00000137	         -0.59762240	        -47.26424303	         17.53655869	         24.03614067	         -5.29412149	         -1.68740373	       -101.55601206	         11.10317139	        -48.24800123	          0.55044215	         14.87916078	         -0.36378471	          5.22801382	         -0.04128313	          3.29455808	         10.08117070	          0.63367641	          2.36945540	         -5.51722290	         -0.01735100	          5.68861207	         -9.08473783	         -3.31774954	          2.80701558	          1.93203360	         -0.13686575	         -0.28815838	
          1.00000000	          0.00000056	          0.00000078	          0.00000013	          0.00000048	          0.00000224	         -0.00000092	        -14.18965004	        -43.01285464	         18.06492142	         19.71983077	         -6.48115769	         -1.11462703	        -86.52025810	         10.06161518	        -46.30273929	          0.39554187	         14.65788815	         -0.31110353	          5.03786330	         -0.02534834	         18.47729115	          9.05846102	          0.08726612	          3.75939387	         -5.18724086	          0.49969607	         -5.58043800	         -9.25995985	         -0.55255205	          4.21943560	         -2.84480235	         -0.16245365	         -0.00740283	
          1.01000000	          0.00000055	          0.00000095	          0.00000007	          0.00000090	          0.00000208	         -0.00000127	        -20.35640823	        -39.94849050	         19.29162466	         12.51560845	         -4.90214357	         -1.08437018	        -77.44309094	         10.58717719	        -44.27438350	          0.03986823	         14.92909553	         -0.14994452	          4.83015348	         -0.00413231	         27.19858141	          8.18538929	          2.47014959	         -3.17369617	         -2.82925088	         -0.43091764	         -0.78276693	         -5.46820561	         -0.38826882	          0.02188098	         -0.43066746	          0.10649111	          0.17210932	
          1.02000000	          0.00000046	          0.00000093	          0.00000007	          0.00000091	          0.00000190	         -0.00000117	        -18.29096924	        -40.84532180	         20.75771190	         13.20598308	         -3.76779418	         -1.37601910	        -80.44236568	         10.75642108	        -44.26483147	          0.11646030	         15.20563491	         -0.15748054	          4.84775785	         -0.01391634	         26.49676199	          6.63316377	          2.48769207	         -4.38825442	         -3.23842320	         -1.41892165	          7.35373420	         -4.43556370	         -1.95457132	         -1.52465534	          2.79732154	          0.22646829	          0.15785867	
          1.03000000	          0.00000062	          0.00000070	          0.00000003	          0.00000011	          0.00000239	         -0.00000065	        -14.58481690	        -42.28445043	         21.38020607	         19.04984372	         -3.07269591	         -1.71054589	        -85.99737498	         10.32212119	        -44.66311574	          0.48318044	         15.17896652	         -0.28637984	          4.92574648	         -0.04426370	         21.86546777	          5.80725809	          0.30989725	         -1.22003157	         -5.19038318	         -2.20841104	         15.39569852	         -4.79484829	         -4.13241009	         -0.92092890	          5.69161951	          0.23256249	          0.03409117	
          1.04000000	          0.00000001	          0.00000034	          0.00000002	         -0.00000009	          0.00000211	         -0.00000003	        -11.18247507	        -41.14722387	         20.19078338	         19.27965792	         -2.87491756	         -1.58553824	        -90.55572558	          9.74706522	        -44.22855208	          0.36650823	         14.70828802	         -0.25601157	          4.92517139	         -0.03155490	         15.40531547	          7.54224810	         -1.11249616	          1.85039148	         -4.74967959	         -0.86627987	          3.77737853	         -6.34193077	         -2.10738203	          1.75604928	          0.99647653	          0.00891355	         -0.00473605	
          1.05000000	          0.00000019	          0.00000028	          0.00000017	          0.00000038	          0.00000178	         -0.00000102	        -11.54357216	        -40.03497328	         18.45434162	         17.94507969	         -3.23454946	         -1.03780158	        -95.50566601	          9.60506977	        -45.05330743	          0.17163853	         14.68824529	         -0.21278546	          5.01600852	         -0.01243355	         12.48251397	         12.58058389	         -1.17852644	          2.04434462	         -2.73479014	          0.57337294	         -6.23170090	         -5.99108468	          0.23804971	          2.94859930	         -2.48815768	         -0.14637825	         -0.03577897	
          1.06000000	          0.00000013	          0.00000070	         -0.00000005	         -0.00000087	          0.00000313	          0.00000031	        -18.12598129	        -37.52689201	         14.98378974	         12.59189295	         -2.41025407	         -1.31069054	       -101.38561076	         10.43687939	        -47.99406301	         -0.21834403	         15.46538071	         -0.02540949	          5.25742782	          0.01298947	         18.92005000	         22.29830912	          0.03612981	         -3.88896165	          1.07171078	          1.02779523	         -7.30753100	         -4.63572679	          0.89058438	          0.26740809	         -2.20431474	         -0.13717420	         -0.10897414	
          1.07000000	         -0.00000044	          0.00000059	          0.00000025	          0.00000086	          0.00000199	         -0.00000181	        -14.87336941	        -38.08362615	         13.19381447	         12.75157733	         -1.92663464	         -2.02548773	       -120.35847090	         12.39337312	        -53.03903878	         -0.23284484	         16.92817570	          0.01030640	          5.73672547	          0.00798620	         21.81091473	         29.69841203	          2.41772765	         -6.26810523	          0.83907277	          0.10379386	         -0.75229943	         -4.69940716	         -0.52496889	         -1.24057475	          0.31721399	         -0.16018641	         -0.22367543	
